<?xml version="1.0" encoding="utf-8"?>
<!-- Generator: Adobe Illustrator 25.4.0, SVG Export Plug-In . SVG Version: 6.00 Build 0)  -->
<svg version="1.1" id="Réteg_1" xmlns="http://www.w3.org/2000/svg" xmlns:xlink="http://www.w3.org/1999/xlink" x="0px" y="0px"
	 viewBox="0 0 792.9 674.3" style="enable-background:new 0 0 792.9 674.3;" xml:space="preserve">
<g id="Layer_1">
	<g>
		<path d="M378.2,117.6c0,0-39.3-91.5-120.3-95.1c-67.7-3-93.5,36.9-118.3,61.2c-24.8,24.3-43.1,28.2-52.7,34.2
			c0,0,21.1,27,59.6,42.2c38.5,15.1,71.1,16.5,71.1,16.5s-27.1,25.5-66.9,36.7c-30.6,8.6-42.7,9.7-42.7,9.7s37,18.4,54.2,71.8
			c22.2,69,69.1,109.8,124.7,144.3c30.5,18.9,71.5,56.4,83.8,91.8c0,0,48-60.6,98.6-85.7c67.9-33.7,122.5-45.1,122.5-45.1
			s-42.8,0-69.1-21.3c-23.5-18.9-32.6-49.4-32.6-49.4s38,19.4,75.6,22.6c27,2.3,60.5-4.1,60.5-4.1s-11-37.5,3.2-67.3
			c14.2-29.8,44.9-95.2,22.4-167.7S564.1-12.8,478.4,11.5S378.2,117.6,378.2,117.6z"/>
		<path d="M370.6,536.3c-0.3,0-0.6,0-0.9-0.1c-2-0.3-3.6-1.7-4.3-3.6c-8.4-24.3-39.1-62.6-81.5-88.9
			c-49.2-30.5-102.7-71.9-127-147.3c-8.5-26.3-22-43.5-31.8-53.3c-10.7-10.7-19.5-15.2-19.6-15.2c-2.2-1.1-3.4-3.5-2.9-5.9
			c0.5-2.4,2.5-4.2,4.9-4.4c0.1,0,12.2-1.2,41.7-9.5c24.1-6.8,43.5-19.1,54.6-27.2c-13.3-1.8-35-6-59.2-15.5
			c-39.4-15.5-61-42.8-61.9-43.9c-1-1.2-1.4-2.8-1.1-4.4s1.2-2.9,2.5-3.7c2.8-1.7,6-3.2,9.7-4.9c10.3-4.7,24.3-11.2,42.1-28.5
			c3.4-3.4,6.9-7,10.6-10.9c22.8-24.3,51.2-54.5,111.8-51.8c34.7,1.5,67.4,19.1,94.5,50.8c11,12.9,19,25.6,24.1,34.6
			c2.8-8.3,7.4-19.6,14.8-31.6c13.6-22.3,39.4-51.5,85.4-64.6c41.7-11.8,81.4-6.6,114.9,15.1c30.1,19.5,53.2,51.4,65.2,89.9
			c23.3,75.2-8.9,142.8-22.7,171.7c-13.1,27.5-3,63.1-2.9,63.4c0.4,1.5,0.2,3.1-0.6,4.4c-0.8,1.3-2.1,2.2-3.7,2.5
			c-1.4,0.3-34.6,6.5-62,4.2c-25.2-2.2-50.3-11.2-64.9-17.4c4.8,10,13.1,24.1,25.8,34.4c24.5,19.8,65.2,20,65.6,20
			c2.8,0,5.2,2.1,5.5,4.9c0.3,2.8-1.6,5.4-4.3,5.9c-0.5,0.1-54.8,11.7-121.2,44.7c-48.9,24.3-96.2,83.6-96.7,84.2
			C373.9,535.5,372.3,536.3,370.6,536.3z M122.4,225.9c13,10.2,33.3,30.9,45,67c23.2,72,74.9,111.9,122.3,141.4
			c30.1,18.7,67,52.5,82.5,85.9c14.5-17,53.3-59.5,94.5-80c38.5-19.1,73.1-31.2,95.9-38.1c-14-3-30.5-8.6-43.5-19.1
			c-24.5-19.8-34-50.8-34.4-52.1c-0.6-2.1,0.1-4.4,1.7-5.8c1.7-1.4,4.1-1.7,6-0.7c0.4,0.2,37.6,18.9,73.6,22
			c19.5,1.7,42.7-1.4,53.3-3.1c-2.6-12.2-6.7-40.9,5-65.3c13.2-27.7,44.1-92.6,22.1-163.7c-11.2-36-32.7-65.8-60.7-83.9
			c-30.7-19.9-67.3-24.6-105.9-13.7c-34,9.6-60.5,29.6-78.8,59.4c-13.7,22.4-17.4,42.2-17.5,42.4c-0.4,2.4-2.4,4.2-4.8,4.5
			c-2.4,0.3-4.7-1.1-5.7-3.3h0c-0.1-0.2-9.8-22.6-29.1-45c-25.4-29.6-54.5-45.3-86.4-46.7c-55.6-2.5-80.9,24.5-103.3,48.3
			c-3.7,4-7.3,7.7-10.9,11.3c-19.1,18.7-34.8,25.9-45.2,30.7c-0.9,0.4-1.8,0.8-2.6,1.2c7.9,8.3,26.1,24.9,52.8,35.4
			c37.1,14.6,69,16.1,69.3,16.1c2.2,0.1,4.1,1.5,4.9,3.6c0.8,2.1,0.2,4.4-1.4,5.9c-1.1,1.1-28.5,26.5-69.2,38
			C139.1,222.1,129.4,224.4,122.4,225.9z"/>
	</g>
	<g>
		<g>
			<path d="M9.1,671.4v-82.9h34c5.8,0,11,1.1,15.6,3.3c4.6,2.2,8.1,5.2,10.7,9c2.5,3.8,3.8,8.1,3.8,12.9s-1.3,9.1-3.9,12.9
				c-2.6,3.8-6.2,6.8-10.8,8.9s-9.8,3.2-15.6,3.2H18.6v32.7L9.1,671.4L9.1,671.4z M18.6,629.9h24.5c3.8,0,7.3-0.7,10.4-2.1
				s5.5-3.3,7.4-5.8c1.8-2.5,2.7-5.2,2.7-8.3c0-3.2-0.9-6-2.6-8.5c-1.8-2.4-4.2-4.4-7.3-5.8c-3.1-1.5-6.6-2.2-10.5-2.2H18.6V629.9z"
				/>
		</g>
		<g>
			<path d="M154.5,657.4c-2.9,5.3-6.8,9.4-11.9,12.4s-10.8,4.5-17.2,4.5c-6.6,0-12.4-1.5-17.5-4.5c-5.1-3-9.1-7.1-11.9-12.4
				c-2.9-5.3-4.3-11.3-4.3-18.1v-50.9h9.8v50.9c0,4.8,1,9.2,3,13.2s4.8,7.2,8.5,9.5c3.6,2.3,7.8,3.5,12.5,3.5
				c4.6,0,8.7-1.1,12.3-3.3s6.4-5.3,8.4-9.3s3-8.5,3-13.6v-50.8h9.8v50.9C158.8,646.1,157.4,652.2,154.5,657.4z"/>
		</g>
		<g>
			<path d="M242,661.6c-2.6,4-6.2,7.1-10.9,9.3c-4.7,2.3-10.1,3.4-16.2,3.4c-6.1,0-11.8-1.2-17-3.7c-5.2-2.5-9.5-5.9-12.8-10.2
				s-5.2-9.2-5.9-14.7l9.5-1.7c0.4,4.1,1.7,7.8,4.1,11.1c2.3,3.3,5.4,5.9,9.3,7.7c3.9,1.8,8.2,2.8,12.8,2.8c4.2,0,7.9-0.7,11.1-2.1
				s5.6-3.3,7.3-5.8s2.5-5.1,2.5-8.1c0.1-3.2-0.9-5.8-2.9-7.8s-4.6-3.5-7.7-4.6c-3.1-1.1-7.2-2.2-12.3-3.3
				c-6.6-1.4-11.7-2.8-15.5-4.1c-3.7-1.3-7-3.4-9.7-6.5c-2.8-3-4.1-7.2-4.1-12.4c0-4.9,1.2-9.2,3.6-13.1c2.4-3.8,5.7-6.9,10-9
				c4.3-2.2,9.1-3.3,14.5-3.3c5.1,0,9.7,1,13.8,2.9s7.5,4.7,10.1,8.1s4.4,7.4,5.2,11.9l-9.2,2.3c-0.6-4.9-2.8-8.9-6.4-12
				c-3.7-3.1-8.1-4.6-13.5-4.6c-3.5,0-6.6,0.7-9.4,2c-2.8,1.3-5,3.2-6.5,5.5s-2.3,4.8-2.4,7.6c0.1,3.3,1.1,5.9,3.1,7.7
				s4.4,3.2,7.2,4.2c2.8,0.9,7,2,12.5,3.3c6.3,1.3,11.4,2.7,15.4,4.2c4,1.4,7.4,3.8,10.1,6.9c2.7,3.1,4.1,7.3,4,12.6
				C245.8,653.1,244.5,657.6,242,661.6z"/>
		</g>
		<g>
			<path d="M261.1,671.4v-13.9l56.8-60.8h-55.6v-8.2h63v13.9l-56.8,60.9h58v8.1L261.1,671.4L261.1,671.4z"/>
		</g>
		<g>
			<path d="M338.6,671.4l29.3-82.8h17.6l29,82.8h-10.3l-6.9-19.9h-41.2l-7.1,19.9H338.6z M359,642.9h35.4l-17.6-50.8L359,642.9z"/>
		</g>
		<g>
			<path d="M432.6,671.4v-82.9h52.5v8.7h-42.7v28.7H478v8.3h-35.6v37.2H432.6z"/>
		</g>
		<g>
			<path d="M492.2,671.4l29.3-82.8h17.6l29,82.8h-10.3l-6.9-19.9h-41.2l-7.1,19.9H492.2z M512.6,642.9H548l-17.6-50.8L512.6,642.9z"
				/>
		</g>
		<g>
			<path d="M586.2,671.4v-82.9h9.8v74.2h42.5v8.7H586.2z"/>
		</g>
		<g>
			<path d="M649.6,671.4l29.3-82.8h17.6l29.1,82.8h-10.3l-6.9-19.9h-41.2l-7.1,19.9H649.6z M670,642.9h35.4l-17.6-50.8L670,642.9z"
				/>
		</g>
		<g>
			<path d="M755.3,671.4v-74.2h-27.8v-8.7h65.3v8.7h-27.6v74.2H755.3z"/>
		</g>
	</g>
	<g>
		<path d="M118.3,186c0,0-39.1-10.2-64.3-51.2C28.9,93.7,7.3,133,26.1,148.2c0,0-39.8,0.6-8.9,26.3C48.2,200,110.5,187.5,118.3,186z
			"/>
		<path d="M75.5,195.8c-21.7,0-45.6-3.8-61.7-17.1C9.6,175.2-3,164.8,0.7,154.3c2.2-6.2,9.1-9.1,15.2-10.5
			c-2.6-5.4-3.2-11.7-1.5-17.8c2.2-8.1,8.1-13.8,15.2-14.8c6.9-1,17.6,1.8,29.1,20.6c23.6,38.5,60.6,48.7,61,48.8
			c2.5,0.7,4.2,2.9,4.1,5.5s-1.9,4.7-4.5,5.2l-0.6,0.1C109,193.4,92.9,195.8,75.5,195.8z M32,122.1c-0.3,0-0.6,0-0.8,0.1
			c-3.3,0.5-5.3,3.8-6.2,6.8c-1.2,4.2-0.7,10.7,4.6,14.9c1.8,1.5,2.5,3.9,1.8,6.1c-0.8,2.2-2.8,3.7-5.1,3.7
			c-8.3,0.2-14.6,2.7-15.2,4.3c0,0-0.8,3.5,9.7,12.2c19.5,16.1,53.3,16,77.2,13.3c-14.2-7.5-33.8-21.5-48.7-45.9
			C43.3,127.8,36.9,122.1,32,122.1z"/>
	</g>
	<g>
		<path d="M605.6,378.2c0,0,35.7,5.4,61.4-17.6s39.7,7.8,23.8,17.5c0,0,32.7,19.7-4.4,22.5C647.3,403.7,605.6,378.2,605.6,378.2z"/>
		<path d="M679.8,406.4c-38.1,0-75.5-22.5-77.1-23.5c-2.2-1.4-3.2-4.1-2.3-6.6c0.9-2.5,3.4-3.9,6-3.6l0,0c0.3,0,33.6,4.6,56.9-16.2
			c13.2-11.8,23.2-10.3,28-8.4c6.5,2.6,11,8.8,11.7,16.3c0.4,4.8-0.8,9.4-3.5,13.1c5.3,4.2,11.5,10.7,9.9,17.6
			c-2,8.6-13.8,10.5-22.5,11.1C684.5,406.3,682.2,406.4,679.8,406.4z M628.3,383.4c15.2,6.4,37,13.4,57.7,11.8
			c8.8-0.7,11.7-2.2,12.5-2.8c-0.8-2.1-5.7-6.6-10.6-9.5c-1.6-1-2.7-2.8-2.7-4.7c0-1.9,1-3.7,2.6-4.7c4.1-2.5,4.2-6.5,4-8.1
			c-0.3-3.2-2.1-6-4.8-7c-4.1-1.6-10.2,0.7-16.6,6.4C657.1,376.8,641.1,381.6,628.3,383.4z"/>
	</g>
</g>
<g id="Layer_2">
</g>
</svg>
